<?xml version="1.0" standalone="no"?>
<!DOCTYPE svg PUBLIC "-//W3C//DTD SVG 20010904//EN"
 "http://www.w3.org/TR/2001/REC-SVG-20010904/DTD/svg10.dtd">
<svg version="1.0" xmlns="http://www.w3.org/2000/svg"
 width="260.000000pt" height="260.000000pt" viewBox="0 0 260.000000 260.000000"
 preserveAspectRatio="xMidYMid meet">
<metadata>
Created by potrace 1.11, written by Peter Selinger 2001-2013
</metadata>
<g transform="translate(0.000000,260.000000) scale(0.100000,-0.100000)"
fill="#000000" stroke="none">
<path d="M1745 1967 c-178 -59 -288 -206 -340 -453 -21 -97 -23 -318 -5 -424
46 -273 187 -442 400 -480 192 -35 364 48 453 217 49 94 67 168 74 306 l6 117
-222 0 c-214 0 -221 -1 -221 -20 0 -19 7 -20 200 -20 l200 0 0 -77 c-1 -201
-98 -382 -245 -453 -44 -22 -64 -25 -165 -25 -110 0 -118 2 -181 32 -170 84
-264 272 -276 554 -12 252 50 464 170 584 86 85 198 124 325 111 181 -19 291
-121 341 -318 13 -49 24 -74 35 -76 20 -4 21 16 1 93 -39 147 -124 259 -238
311 -53 24 -77 29 -167 31 -67 2 -119 -2 -145 -10z"/>
<path d="M685 1958 c-2 -7 -92 -292 -200 -633 -108 -341 -202 -639 -210 -662
-13 -42 -13 -43 9 -43 20 0 26 13 60 122 21 68 51 167 68 221 l31 97 263 0
263 0 31 -102 c106 -345 103 -338 122 -338 10 0 18 3 18 8 0 4 -92 306 -203
672 -184 604 -205 665 -225 668 -12 2 -24 -3 -27 -10z m149 -455 c64 -210 116
-386 116 -392 0 -8 -78 -11 -245 -11 -135 0 -245 3 -245 6 0 8 241 768 247
777 3 5 6 7 8 5 1 -2 55 -175 119 -385z"/>
</g>
</svg>
